<svg xmlns="http://www.w3.org/2000/svg" width="800" height="527" viewBox="0 0 800 527" font-family="ui-monospace, SFMono-Regular, 'SF Mono', Menlo, Consolas, 'Liberation Mono', monospace" font-size="13px">
<rect width="800" height="527" fill="#0d1117"/>
<rect x="0" y="17" width="408" height="17" fill="#262a34"/>
<rect x="0" y="153" width="800" height="17" fill="#282616"/>
<rect x="0" y="170" width="800" height="17" fill="#36321c"/>
<rect x="0" y="187" width="304" height="17" fill="#36321c"/>
<rect x="304" y="187" width="8" height="17" fill="#88c0d0"/>
<rect x="312" y="187" width="488" height="17" fill="#36321c"/>
<rect x="0" y="204" width="800" height="17" fill="#36321c"/>
<rect x="0" y="221" width="800" height="17" fill="#123020"/>
<rect x="0" y="357" width="800" height="17" fill="#123020"/>
<rect x="0" y="374" width="800" height="17" fill="#123020"/>
<rect x="0" y="391" width="800" height="17" fill="#123020"/>
<rect x="0" y="408" width="800" height="17" fill="#282616"/>
<rect x="0" y="425" width="800" height="17" fill="#282616"/>
<rect x="0" y="442" width="800" height="17" fill="#282616"/>
<rect x="0" y="459" width="800" height="17" fill="#36321c"/>
<rect x="0" y="476" width="800" height="17" fill="#123020"/>
<line x1="4" y1="59" x2="8" y2="59" stroke="#6e7681" stroke-width="1"/>
<line x1="0" y1="59" x2="4" y2="59" stroke="#6e7681" stroke-width="1"/>
<line x1="12" y1="59" x2="16" y2="59" stroke="#6e7681" stroke-width="1"/>
<line x1="8" y1="59" x2="12" y2="59" stroke="#6e7681" stroke-width="1"/>
<line x1="20" y1="59" x2="24" y2="59" stroke="#6e7681" stroke-width="1"/>
<line x1="16" y1="59" x2="20" y2="59" stroke="#6e7681" stroke-width="1"/>
<line x1="28" y1="59" x2="32" y2="59" stroke="#6e7681" stroke-width="1"/>
<line x1="24" y1="59" x2="28" y2="59" stroke="#6e7681" stroke-width="1"/>
<line x1="36" y1="59" x2="40" y2="59" stroke="#6e7681" stroke-width="1"/>
<line x1="32" y1="59" x2="36" y2="59" stroke="#6e7681" stroke-width="1"/>
<line x1="44" y1="59" x2="48" y2="59" stroke="#6e7681" stroke-width="1"/>
<line x1="40" y1="59" x2="44" y2="59" stroke="#6e7681" stroke-width="1"/>
<line x1="52" y1="59" x2="56" y2="59" stroke="#6e7681" stroke-width="1"/>
<line x1="48" y1="59" x2="52" y2="59" stroke="#6e7681" stroke-width="1"/>
<line x1="60" y1="59" x2="64" y2="59" stroke="#6e7681" stroke-width="1"/>
<line x1="56" y1="59" x2="60" y2="59" stroke="#6e7681" stroke-width="1"/>
<line x1="68" y1="59" x2="72" y2="59" stroke="#6e7681" stroke-width="1"/>
<line x1="64" y1="59" x2="68" y2="59" stroke="#6e7681" stroke-width="1"/>
<line x1="76" y1="59" x2="80" y2="59" stroke="#6e7681" stroke-width="1"/>
<line x1="72" y1="59" x2="76" y2="59" stroke="#6e7681" stroke-width="1"/>
<line x1="84" y1="59" x2="88" y2="59" stroke="#6e7681" stroke-width="1"/>
<line x1="80" y1="59" x2="84" y2="59" stroke="#6e7681" stroke-width="1"/>
<line x1="92" y1="59" x2="96" y2="59" stroke="#6e7681" stroke-width="1"/>
<line x1="88" y1="59" x2="92" y2="59" stroke="#6e7681" stroke-width="1"/>
<line x1="100" y1="59" x2="104" y2="59" stroke="#6e7681" stroke-width="1"/>
<line x1="96" y1="59" x2="100" y2="59" stroke="#6e7681" stroke-width="1"/>
<line x1="108" y1="59" x2="112" y2="59" stroke="#6e7681" stroke-width="1"/>
<line x1="104" y1="59" x2="108" y2="59" stroke="#6e7681" stroke-width="1"/>
<line x1="116" y1="59" x2="120" y2="59" stroke="#6e7681" stroke-width="1"/>
<line x1="112" y1="59" x2="116" y2="59" stroke="#6e7681" stroke-width="1"/>
<line x1="124" y1="59" x2="128" y2="59" stroke="#6e7681" stroke-width="1"/>
<line x1="120" y1="59" x2="124" y2="59" stroke="#6e7681" stroke-width="1"/>
<line x1="132" y1="59" x2="136" y2="59" stroke="#6e7681" stroke-width="1"/>
<line x1="128" y1="59" x2="132" y2="59" stroke="#6e7681" stroke-width="1"/>
<line x1="140" y1="59" x2="144" y2="59" stroke="#6e7681" stroke-width="1"/>
<line x1="136" y1="59" x2="140" y2="59" stroke="#6e7681" stroke-width="1"/>
<line x1="148" y1="59" x2="152" y2="59" stroke="#6e7681" stroke-width="1"/>
<line x1="144" y1="59" x2="148" y2="59" stroke="#6e7681" stroke-width="1"/>
<line x1="156" y1="59" x2="160" y2="59" stroke="#6e7681" stroke-width="1"/>
<line x1="152" y1="59" x2="156" y2="59" stroke="#6e7681" stroke-width="1"/>
<line x1="164" y1="59" x2="168" y2="59" stroke="#6e7681" stroke-width="1"/>
<line x1="160" y1="59" x2="164" y2="59" stroke="#6e7681" stroke-width="1"/>
<line x1="172" y1="59" x2="176" y2="59" stroke="#6e7681" stroke-width="1"/>
<line x1="168" y1="59" x2="172" y2="59" stroke="#6e7681" stroke-width="1"/>
<line x1="180" y1="59" x2="184" y2="59" stroke="#6e7681" stroke-width="1"/>
<line x1="176" y1="59" x2="180" y2="59" stroke="#6e7681" stroke-width="1"/>
<line x1="188" y1="59" x2="192" y2="59" stroke="#6e7681" stroke-width="1"/>
<line x1="184" y1="59" x2="188" y2="59" stroke="#6e7681" stroke-width="1"/>
<line x1="196" y1="59" x2="200" y2="59" stroke="#6e7681" stroke-width="1"/>
<line x1="192" y1="59" x2="196" y2="59" stroke="#6e7681" stroke-width="1"/>
<line x1="204" y1="59" x2="208" y2="59" stroke="#6e7681" stroke-width="1"/>
<line x1="200" y1="59" x2="204" y2="59" stroke="#6e7681" stroke-width="1"/>
<line x1="212" y1="59" x2="216" y2="59" stroke="#6e7681" stroke-width="1"/>
<line x1="208" y1="59" x2="212" y2="59" stroke="#6e7681" stroke-width="1"/>
<line x1="220" y1="59" x2="224" y2="59" stroke="#6e7681" stroke-width="1"/>
<line x1="216" y1="59" x2="220" y2="59" stroke="#6e7681" stroke-width="1"/>
<line x1="228" y1="59" x2="232" y2="59" stroke="#6e7681" stroke-width="1"/>
<line x1="224" y1="59" x2="228" y2="59" stroke="#6e7681" stroke-width="1"/>
<line x1="236" y1="59" x2="240" y2="59" stroke="#6e7681" stroke-width="1"/>
<line x1="232" y1="59" x2="236" y2="59" stroke="#6e7681" stroke-width="1"/>
<line x1="244" y1="59" x2="248" y2="59" stroke="#6e7681" stroke-width="1"/>
<line x1="240" y1="59" x2="244" y2="59" stroke="#6e7681" stroke-width="1"/>
<line x1="252" y1="59" x2="256" y2="59" stroke="#6e7681" stroke-width="1"/>
<line x1="248" y1="59" x2="252" y2="59" stroke="#6e7681" stroke-width="1"/>
<line x1="260" y1="59" x2="264" y2="59" stroke="#6e7681" stroke-width="1"/>
<line x1="256" y1="59" x2="260" y2="59" stroke="#6e7681" stroke-width="1"/>
<line x1="268" y1="59" x2="272" y2="59" stroke="#6e7681" stroke-width="1"/>
<line x1="264" y1="59" x2="268" y2="59" stroke="#6e7681" stroke-width="1"/>
<line x1="276" y1="59" x2="280" y2="59" stroke="#6e7681" stroke-width="1"/>
<line x1="272" y1="59" x2="276" y2="59" stroke="#6e7681" stroke-width="1"/>
<line x1="284" y1="59" x2="288" y2="59" stroke="#6e7681" stroke-width="1"/>
<line x1="280" y1="59" x2="284" y2="59" stroke="#6e7681" stroke-width="1"/>
<line x1="292" y1="59" x2="296" y2="59" stroke="#6e7681" stroke-width="1"/>
<line x1="288" y1="59" x2="292" y2="59" stroke="#6e7681" stroke-width="1"/>
<line x1="300" y1="59" x2="304" y2="59" stroke="#6e7681" stroke-width="1"/>
<line x1="296" y1="59" x2="300" y2="59" stroke="#6e7681" stroke-width="1"/>
<line x1="308" y1="59" x2="312" y2="59" stroke="#6e7681" stroke-width="1"/>
<line x1="304" y1="59" x2="308" y2="59" stroke="#6e7681" stroke-width="1"/>
<line x1="316" y1="59" x2="320" y2="59" stroke="#6e7681" stroke-width="1"/>
<line x1="312" y1="59" x2="316" y2="59" stroke="#6e7681" stroke-width="1"/>
<line x1="324" y1="59" x2="328" y2="59" stroke="#6e7681" stroke-width="1"/>
<line x1="320" y1="59" x2="324" y2="59" stroke="#6e7681" stroke-width="1"/>
<line x1="332" y1="59" x2="336" y2="59" stroke="#6e7681" stroke-width="1"/>
<line x1="328" y1="59" x2="332" y2="59" stroke="#6e7681" stroke-width="1"/>
<line x1="340" y1="59" x2="344" y2="59" stroke="#6e7681" stroke-width="1"/>
<line x1="336" y1="59" x2="340" y2="59" stroke="#6e7681" stroke-width="1"/>
<line x1="348" y1="59" x2="352" y2="59" stroke="#6e7681" stroke-width="1"/>
<line x1="344" y1="59" x2="348" y2="59" stroke="#6e7681" stroke-width="1"/>
<line x1="356" y1="59" x2="360" y2="59" stroke="#6e7681" stroke-width="1"/>
<line x1="352" y1="59" x2="356" y2="59" stroke="#6e7681" stroke-width="1"/>
<line x1="364" y1="59" x2="368" y2="59" stroke="#6e7681" stroke-width="1"/>
<line x1="360" y1="59" x2="364" y2="59" stroke="#6e7681" stroke-width="1"/>
<line x1="372" y1="59" x2="376" y2="59" stroke="#6e7681" stroke-width="1"/>
<line x1="368" y1="59" x2="372" y2="59" stroke="#6e7681" stroke-width="1"/>
<line x1="380" y1="59" x2="384" y2="59" stroke="#6e7681" stroke-width="1"/>
<line x1="376" y1="59" x2="380" y2="59" stroke="#6e7681" stroke-width="1"/>
<line x1="388" y1="59" x2="392" y2="59" stroke="#6e7681" stroke-width="1"/>
<line x1="384" y1="59" x2="388" y2="59" stroke="#6e7681" stroke-width="1"/>
<line x1="396" y1="59" x2="400" y2="59" stroke="#6e7681" stroke-width="1"/>
<line x1="392" y1="59" x2="396" y2="59" stroke="#6e7681" stroke-width="1"/>
<line x1="404" y1="59" x2="408" y2="59" stroke="#6e7681" stroke-width="1"/>
<line x1="400" y1="59" x2="404" y2="59" stroke="#6e7681" stroke-width="1"/>
<line x1="412" y1="59" x2="416" y2="59" stroke="#6e7681" stroke-width="1"/>
<line x1="408" y1="59" x2="412" y2="59" stroke="#6e7681" stroke-width="1"/>
<line x1="420" y1="59" x2="424" y2="59" stroke="#6e7681" stroke-width="1"/>
<line x1="416" y1="59" x2="420" y2="59" stroke="#6e7681" stroke-width="1"/>
<line x1="428" y1="59" x2="432" y2="59" stroke="#6e7681" stroke-width="1"/>
<line x1="424" y1="59" x2="428" y2="59" stroke="#6e7681" stroke-width="1"/>
<line x1="436" y1="59" x2="440" y2="59" stroke="#6e7681" stroke-width="1"/>
<line x1="432" y1="59" x2="436" y2="59" stroke="#6e7681" stroke-width="1"/>
<line x1="444" y1="59" x2="448" y2="59" stroke="#6e7681" stroke-width="1"/>
<line x1="440" y1="59" x2="444" y2="59" stroke="#6e7681" stroke-width="1"/>
<line x1="452" y1="59" x2="456" y2="59" stroke="#6e7681" stroke-width="1"/>
<line x1="448" y1="59" x2="452" y2="59" stroke="#6e7681" stroke-width="1"/>
<line x1="460" y1="59" x2="464" y2="59" stroke="#6e7681" stroke-width="1"/>
<line x1="456" y1="59" x2="460" y2="59" stroke="#6e7681" stroke-width="1"/>
<line x1="468" y1="59" x2="472" y2="59" stroke="#6e7681" stroke-width="1"/>
<line x1="464" y1="59" x2="468" y2="59" stroke="#6e7681" stroke-width="1"/>
<line x1="476" y1="59" x2="480" y2="59" stroke="#6e7681" stroke-width="1"/>
<line x1="472" y1="59" x2="476" y2="59" stroke="#6e7681" stroke-width="1"/>
<line x1="484" y1="59" x2="488" y2="59" stroke="#6e7681" stroke-width="1"/>
<line x1="480" y1="59" x2="484" y2="59" stroke="#6e7681" stroke-width="1"/>
<line x1="492" y1="59" x2="496" y2="59" stroke="#6e7681" stroke-width="1"/>
<line x1="488" y1="59" x2="492" y2="59" stroke="#6e7681" stroke-width="1"/>
<line x1="500" y1="59" x2="504" y2="59" stroke="#6e7681" stroke-width="1"/>
<line x1="496" y1="59" x2="500" y2="59" stroke="#6e7681" stroke-width="1"/>
<line x1="508" y1="59" x2="512" y2="59" stroke="#6e7681" stroke-width="1"/>
<line x1="504" y1="59" x2="508" y2="59" stroke="#6e7681" stroke-width="1"/>
<line x1="516" y1="59" x2="520" y2="59" stroke="#6e7681" stroke-width="1"/>
<line x1="512" y1="59" x2="516" y2="59" stroke="#6e7681" stroke-width="1"/>
<line x1="524" y1="59" x2="528" y2="59" stroke="#6e7681" stroke-width="1"/>
<line x1="520" y1="59" x2="524" y2="59" stroke="#6e7681" stroke-width="1"/>
<line x1="532" y1="59" x2="536" y2="59" stroke="#6e7681" stroke-width="1"/>
<line x1="528" y1="59" x2="532" y2="59" stroke="#6e7681" stroke-width="1"/>
<line x1="540" y1="59" x2="544" y2="59" stroke="#6e7681" stroke-width="1"/>
<line x1="536" y1="59" x2="540" y2="59" stroke="#6e7681" stroke-width="1"/>
<line x1="548" y1="59" x2="552" y2="59" stroke="#6e7681" stroke-width="1"/>
<line x1="544" y1="59" x2="548" y2="59" stroke="#6e7681" stroke-width="1"/>
<line x1="556" y1="59" x2="560" y2="59" stroke="#6e7681" stroke-width="1"/>
<line x1="552" y1="59" x2="556" y2="59" stroke="#6e7681" stroke-width="1"/>
<line x1="564" y1="59" x2="568" y2="59" stroke="#6e7681" stroke-width="1"/>
<line x1="560" y1="59" x2="564" y2="59" stroke="#6e7681" stroke-width="1"/>
<line x1="572" y1="59" x2="576" y2="59" stroke="#6e7681" stroke-width="1"/>
<line x1="568" y1="59" x2="572" y2="59" stroke="#6e7681" stroke-width="1"/>
<line x1="580" y1="59" x2="584" y2="59" stroke="#6e7681" stroke-width="1"/>
<line x1="576" y1="59" x2="580" y2="59" stroke="#6e7681" stroke-width="1"/>
<line x1="588" y1="59" x2="592" y2="59" stroke="#6e7681" stroke-width="1"/>
<line x1="584" y1="59" x2="588" y2="59" stroke="#6e7681" stroke-width="1"/>
<line x1="596" y1="59" x2="600" y2="59" stroke="#6e7681" stroke-width="1"/>
<line x1="592" y1="59" x2="596" y2="59" stroke="#6e7681" stroke-width="1"/>
<line x1="604" y1="59" x2="608" y2="59" stroke="#6e7681" stroke-width="1"/>
<line x1="600" y1="59" x2="604" y2="59" stroke="#6e7681" stroke-width="1"/>
<line x1="612" y1="59" x2="616" y2="59" stroke="#6e7681" stroke-width="1"/>
<line x1="608" y1="59" x2="612" y2="59" stroke="#6e7681" stroke-width="1"/>
<line x1="620" y1="59" x2="624" y2="59" stroke="#6e7681" stroke-width="1"/>
<line x1="616" y1="59" x2="620" y2="59" stroke="#6e7681" stroke-width="1"/>
<line x1="628" y1="59" x2="632" y2="59" stroke="#6e7681" stroke-width="1"/>
<line x1="624" y1="59" x2="628" y2="59" stroke="#6e7681" stroke-width="1"/>
<line x1="636" y1="59" x2="640" y2="59" stroke="#6e7681" stroke-width="1"/>
<line x1="632" y1="59" x2="636" y2="59" stroke="#6e7681" stroke-width="1"/>
<line x1="644" y1="59" x2="648" y2="59" stroke="#6e7681" stroke-width="1"/>
<line x1="640" y1="59" x2="644" y2="59" stroke="#6e7681" stroke-width="1"/>
<line x1="652" y1="59" x2="656" y2="59" stroke="#6e7681" stroke-width="1"/>
<line x1="648" y1="59" x2="652" y2="59" stroke="#6e7681" stroke-width="1"/>
<line x1="660" y1="59" x2="664" y2="59" stroke="#6e7681" stroke-width="1"/>
<line x1="656" y1="59" x2="660" y2="59" stroke="#6e7681" stroke-width="1"/>
<line x1="668" y1="59" x2="672" y2="59" stroke="#6e7681" stroke-width="1"/>
<line x1="664" y1="59" x2="668" y2="59" stroke="#6e7681" stroke-width="1"/>
<line x1="676" y1="59" x2="680" y2="59" stroke="#6e7681" stroke-width="1"/>
<line x1="672" y1="59" x2="676" y2="59" stroke="#6e7681" stroke-width="1"/>
<line x1="684" y1="59" x2="688" y2="59" stroke="#6e7681" stroke-width="1"/>
<line x1="680" y1="59" x2="684" y2="59" stroke="#6e7681" stroke-width="1"/>
<line x1="692" y1="59" x2="696" y2="59" stroke="#6e7681" stroke-width="1"/>
<line x1="688" y1="59" x2="692" y2="59" stroke="#6e7681" stroke-width="1"/>
<line x1="700" y1="59" x2="704" y2="59" stroke="#6e7681" stroke-width="1"/>
<line x1="696" y1="59" x2="700" y2="59" stroke="#6e7681" stroke-width="1"/>
<line x1="708" y1="59" x2="712" y2="59" stroke="#6e7681" stroke-width="1"/>
<line x1="704" y1="59" x2="708" y2="59" stroke="#6e7681" stroke-width="1"/>
<line x1="716" y1="59" x2="720" y2="59" stroke="#6e7681" stroke-width="1"/>
<line x1="712" y1="59" x2="716" y2="59" stroke="#6e7681" stroke-width="1"/>
<line x1="724" y1="59" x2="728" y2="59" stroke="#6e7681" stroke-width="1"/>
<line x1="720" y1="59" x2="724" y2="59" stroke="#6e7681" stroke-width="1"/>
<line x1="732" y1="59" x2="736" y2="59" stroke="#6e7681" stroke-width="1"/>
<line x1="728" y1="59" x2="732" y2="59" stroke="#6e7681" stroke-width="1"/>
<line x1="740" y1="59" x2="744" y2="59" stroke="#6e7681" stroke-width="1"/>
<line x1="736" y1="59" x2="740" y2="59" stroke="#6e7681" stroke-width="1"/>
<line x1="748" y1="59" x2="752" y2="59" stroke="#6e7681" stroke-width="1"/>
<line x1="744" y1="59" x2="748" y2="59" stroke="#6e7681" stroke-width="1"/>
<line x1="756" y1="59" x2="760" y2="59" stroke="#6e7681" stroke-width="1"/>
<line x1="752" y1="59" x2="756" y2="59" stroke="#6e7681" stroke-width="1"/>
<line x1="764" y1="59" x2="768" y2="59" stroke="#6e7681" stroke-width="1"/>
<line x1="760" y1="59" x2="764" y2="59" stroke="#6e7681" stroke-width="1"/>
<line x1="772" y1="59" x2="776" y2="59" stroke="#6e7681" stroke-width="1"/>
<line x1="768" y1="59" x2="772" y2="59" stroke="#6e7681" stroke-width="1"/>
<line x1="780" y1="59" x2="784" y2="59" stroke="#6e7681" stroke-width="1"/>
<line x1="776" y1="59" x2="780" y2="59" stroke="#6e7681" stroke-width="1"/>
<line x1="788" y1="59" x2="792" y2="59" stroke="#6e7681" stroke-width="1"/>
<line x1="784" y1="59" x2="788" y2="59" stroke="#6e7681" stroke-width="1"/>
<line x1="796" y1="59" x2="800" y2="59" stroke="#6e7681" stroke-width="1"/>
<line x1="792" y1="59" x2="796" y2="59" stroke="#6e7681" stroke-width="1"/>
<line x1="4" y1="161" x2="8" y2="161" stroke="#d29922" stroke-width="1"/>
<line x1="4" y1="161" x2="4" y2="170" stroke="#d29922" stroke-width="1"/>
<line x1="4" y1="170" x2="4" y2="178" stroke="#d29922" stroke-width="1"/>
<line x1="4" y1="178" x2="4" y2="187" stroke="#d29922" stroke-width="1"/>
<line x1="4" y1="187" x2="4" y2="195" stroke="#d29922" stroke-width="1"/>
<line x1="4" y1="195" x2="4" y2="204" stroke="#d29922" stroke-width="1"/>
<line x1="4" y1="204" x2="4" y2="212" stroke="#d29922" stroke-width="1"/>
<line x1="4" y1="212" x2="8" y2="212" stroke="#d29922" stroke-width="1"/>
<line x1="4" y1="416" x2="8" y2="416" stroke="#d29922" stroke-width="1"/>
<line x1="4" y1="416" x2="4" y2="425" stroke="#d29922" stroke-width="1"/>
<line x1="4" y1="425" x2="4" y2="433" stroke="#d29922" stroke-width="1"/>
<line x1="4" y1="433" x2="4" y2="442" stroke="#d29922" stroke-width="1"/>
<line x1="4" y1="442" x2="4" y2="450" stroke="#d29922" stroke-width="1"/>
<line x1="4" y1="450" x2="4" y2="459" stroke="#d29922" stroke-width="1"/>
<line x1="4" y1="459" x2="4" y2="467" stroke="#d29922" stroke-width="1"/>
<line x1="4" y1="467" x2="8" y2="467" stroke="#d29922" stroke-width="1"/>
<text x="8" y="13" fill="#c9d1d9" font-weight="bold" textLength="88" lengthAdjust="spacingAndGlyphs" xml:space="preserve">annotations</text>
<text x="104" y="13" fill="#c9d1d9" font-weight="bold" textLength="8" lengthAdjust="spacingAndGlyphs" xml:space="preserve">·</text>
<text x="120" y="13" fill="#c9d1d9" font-weight="bold" textLength="8" lengthAdjust="spacingAndGlyphs" xml:space="preserve">2</text>
<text x="8" y="30" fill="#3fb950" textLength="8" lengthAdjust="spacingAndGlyphs" xml:space="preserve">✓</text>
<text x="24" y="30" fill="#6e7681" font-weight="bold" textLength="80" lengthAdjust="spacingAndGlyphs" xml:space="preserve">rate.rs:17</text>
<text x="120" y="30" fill="#c9d1d9" font-weight="bold" textLength="24" lengthAdjust="spacingAndGlyphs" xml:space="preserve">Run</text>
<text x="152" y="30" fill="#c9d1d9" font-weight="bold" textLength="64" lengthAdjust="spacingAndGlyphs" xml:space="preserve">refill()</text>
<text x="224" y="30" fill="#c9d1d9" font-weight="bold" textLength="48" lengthAdjust="spacingAndGlyphs" xml:space="preserve">before</text>
<text x="280" y="30" fill="#c9d1d9" font-weight="bold" textLength="24" lengthAdjust="spacingAndGlyphs" xml:space="preserve">the</text>
<text x="312" y="30" fill="#c9d1d9" font-weight="bold" textLength="40" lengthAdjust="spacingAndGlyphs" xml:space="preserve">early</text>
<text x="360" y="30" fill="#c9d1d9" font-weight="bold" textLength="48" lengthAdjust="spacingAndGlyphs" xml:space="preserve">return</text>
<text x="8" y="47" fill="#d29922" textLength="8" lengthAdjust="spacingAndGlyphs" xml:space="preserve">•</text>
<text x="24" y="47" fill="#6e7681" textLength="80" lengthAdjust="spacingAndGlyphs" xml:space="preserve">rate.rs:29</text>
<text x="120" y="47" fill="#c9d1d9" textLength="96" lengthAdjust="spacingAndGlyphs" xml:space="preserve">Whole-second</text>
<text x="224" y="47" fill="#c9d1d9" textLength="80" lengthAdjust="spacingAndGlyphs" xml:space="preserve">truncation</text>
<text x="312" y="47" fill="#c9d1d9" textLength="40" lengthAdjust="spacingAndGlyphs" xml:space="preserve">drops</text>
<text x="360" y="47" fill="#c9d1d9" textLength="80" lengthAdjust="spacingAndGlyphs" xml:space="preserve">sub-second</text>
<text x="448" y="47" fill="#c9d1d9" textLength="56" lengthAdjust="spacingAndGlyphs" xml:space="preserve">refills</text>
<text x="8" y="81" fill="#c9d1d9" font-weight="bold" textLength="8" lengthAdjust="spacingAndGlyphs" xml:space="preserve">▸</text>
<text x="24" y="81" fill="#c9d1d9" font-weight="bold" textLength="8" lengthAdjust="spacingAndGlyphs" xml:space="preserve">M</text>
<text x="40" y="81" fill="#c9d1d9" font-weight="bold" textLength="56" lengthAdjust="spacingAndGlyphs" xml:space="preserve">rate.rs</text>
<text x="0" y="98" fill="#39c5cf" textLength="16" lengthAdjust="spacingAndGlyphs" xml:space="preserve">@@</text>
<text x="24" y="98" fill="#39c5cf" textLength="40" lengthAdjust="spacingAndGlyphs" xml:space="preserve">-14,6</text>
<text x="72" y="98" fill="#39c5cf" textLength="40" lengthAdjust="spacingAndGlyphs" xml:space="preserve">+14,8</text>
<text x="120" y="98" fill="#39c5cf" textLength="16" lengthAdjust="spacingAndGlyphs" xml:space="preserve">@@</text>
<text x="144" y="98" fill="#39c5cf" textLength="32" lengthAdjust="spacingAndGlyphs" xml:space="preserve">impl</text>
<text x="184" y="98" fill="#39c5cf" textLength="56" lengthAdjust="spacingAndGlyphs" xml:space="preserve">Limiter</text>
<text x="248" y="98" fill="#39c5cf" textLength="8" lengthAdjust="spacingAndGlyphs" xml:space="preserve">{</text>
<text x="272" y="98" fill="#39c5cf" textLength="16" lengthAdjust="spacingAndGlyphs" xml:space="preserve">(±</text>
<text x="296" y="98" fill="#39c5cf" textLength="64" lengthAdjust="spacingAndGlyphs" xml:space="preserve">context)</text>
<text x="32" y="115" fill="#6e7681" textLength="16" lengthAdjust="spacingAndGlyphs" xml:space="preserve">14</text>
<text x="72" y="115" fill="#6e7681" textLength="16" lengthAdjust="spacingAndGlyphs" xml:space="preserve">14</text>
<text x="32" y="132" fill="#6e7681" textLength="16" lengthAdjust="spacingAndGlyphs" xml:space="preserve">15</text>
<text x="72" y="132" fill="#6e7681" textLength="16" lengthAdjust="spacingAndGlyphs" xml:space="preserve">15</text>
<text x="136" y="132" fill="#65737e" textLength="24" lengthAdjust="spacingAndGlyphs" xml:space="preserve">///</text>
<text x="168" y="132" fill="#65737e" textLength="32" lengthAdjust="spacingAndGlyphs" xml:space="preserve">Take</text>
<text x="208" y="132" fill="#65737e" textLength="24" lengthAdjust="spacingAndGlyphs" xml:space="preserve">one</text>
<text x="240" y="132" fill="#65737e" textLength="48" lengthAdjust="spacingAndGlyphs" xml:space="preserve">token,</text>
<text x="296" y="132" fill="#65737e" textLength="72" lengthAdjust="spacingAndGlyphs" xml:space="preserve">returning</text>
<text x="376" y="132" fill="#65737e" textLength="56" lengthAdjust="spacingAndGlyphs" xml:space="preserve">whether</text>
<text x="440" y="132" fill="#65737e" textLength="24" lengthAdjust="spacingAndGlyphs" xml:space="preserve">the</text>
<text x="472" y="132" fill="#65737e" textLength="32" lengthAdjust="spacingAndGlyphs" xml:space="preserve">call</text>
<text x="512" y="132" fill="#65737e" textLength="16" lengthAdjust="spacingAndGlyphs" xml:space="preserve">is</text>
<text x="536" y="132" fill="#65737e" textLength="64" lengthAdjust="spacingAndGlyphs" xml:space="preserve">allowed.</text>
<text x="32" y="149" fill="#6e7681" textLength="16" lengthAdjust="spacingAndGlyphs" xml:space="preserve">16</text>
<text x="72" y="149" fill="#6e7681" textLength="16" lengthAdjust="spacingAndGlyphs" xml:space="preserve">16</text>
<text x="136" y="149" fill="#b48ead" textLength="24" lengthAdjust="spacingAndGlyphs" xml:space="preserve">pub</text>
<text x="168" y="149" fill="#b48ead" textLength="16" lengthAdjust="spacingAndGlyphs" xml:space="preserve">fn</text>
<text x="192" y="149" fill="#8fa1b3" textLength="88" lengthAdjust="spacingAndGlyphs" xml:space="preserve">try_acquire</text>
<text x="280" y="149" fill="#c0c5ce" textLength="16" lengthAdjust="spacingAndGlyphs" xml:space="preserve">(&amp;</text>
<text x="296" y="149" fill="#b48ead" textLength="24" lengthAdjust="spacingAndGlyphs" xml:space="preserve">mut</text>
<text x="328" y="149" fill="#bf616a" textLength="32" lengthAdjust="spacingAndGlyphs" xml:space="preserve">self</text>
<text x="360" y="149" fill="#c0c5ce" textLength="8" lengthAdjust="spacingAndGlyphs" xml:space="preserve">)</text>
<text x="376" y="149" fill="#c0c5ce" textLength="16" lengthAdjust="spacingAndGlyphs" xml:space="preserve">-&gt;</text>
<text x="400" y="149" fill="#b48ead" textLength="32" lengthAdjust="spacingAndGlyphs" xml:space="preserve">bool</text>
<text x="440" y="149" fill="#c0c5ce" textLength="8" lengthAdjust="spacingAndGlyphs" xml:space="preserve">{</text>
<text x="72" y="166" fill="#3fb950" textLength="16" lengthAdjust="spacingAndGlyphs" xml:space="preserve">17</text>
<text x="96" y="166" fill="#3fb950" textLength="8" lengthAdjust="spacingAndGlyphs" xml:space="preserve">+</text>
<text x="168" y="166" fill="#bf616a" textLength="32" lengthAdjust="spacingAndGlyphs" xml:space="preserve">self</text>
<text x="200" y="166" fill="#c0c5ce" textLength="8" lengthAdjust="spacingAndGlyphs" xml:space="preserve">.</text>
<text x="208" y="166" fill="#96b5b4" textLength="48" lengthAdjust="spacingAndGlyphs" xml:space="preserve">refill</text>
<text x="256" y="166" fill="#c0c5ce" textLength="24" lengthAdjust="spacingAndGlyphs" xml:space="preserve">();</text>
<text x="16" y="183" fill="#6e7681" font-weight="bold" textLength="32" lengthAdjust="spacingAndGlyphs" xml:space="preserve">edit</text>
<text x="56" y="183" fill="#6e7681" font-weight="bold" textLength="80" lengthAdjust="spacingAndGlyphs" xml:space="preserve">annotation</text>
<text x="160" y="183" fill="#6e7681" font-weight="bold" textLength="40" lengthAdjust="spacingAndGlyphs" xml:space="preserve">type:</text>
<text x="208" y="183" fill="#6e7681" font-weight="bold" textLength="24" lengthAdjust="spacingAndGlyphs" xml:space="preserve">fix</text>
<text x="16" y="200" fill="#c9d1d9" textLength="24" lengthAdjust="spacingAndGlyphs" xml:space="preserve">Run</text>
<text x="48" y="200" fill="#c9d1d9" textLength="64" lengthAdjust="spacingAndGlyphs" xml:space="preserve">refill()</text>
<text x="120" y="200" fill="#c9d1d9" textLength="48" lengthAdjust="spacingAndGlyphs" xml:space="preserve">before</text>
<text x="176" y="200" fill="#c9d1d9" textLength="24" lengthAdjust="spacingAndGlyphs" xml:space="preserve">the</text>
<text x="208" y="200" fill="#c9d1d9" textLength="40" lengthAdjust="spacingAndGlyphs" xml:space="preserve">early</text>
<text x="256" y="200" fill="#c9d1d9" textLength="48" lengthAdjust="spacingAndGlyphs" xml:space="preserve">return</text>
<text x="16" y="217" fill="#bc8cff" font-weight="bold" textLength="48" lengthAdjust="spacingAndGlyphs" xml:space="preserve">ctrl-s</text>
<text x="72" y="217" fill="#6e7681" textLength="32" lengthAdjust="spacingAndGlyphs" xml:space="preserve">save</text>
<text x="112" y="217" fill="#6e7681" textLength="8" lengthAdjust="spacingAndGlyphs" xml:space="preserve">·</text>
<text x="128" y="217" fill="#bc8cff" font-weight="bold" textLength="48" lengthAdjust="spacingAndGlyphs" xml:space="preserve">ctrl-t</text>
<text x="184" y="217" fill="#6e7681" textLength="32" lengthAdjust="spacingAndGlyphs" xml:space="preserve">type</text>
<text x="224" y="217" fill="#6e7681" textLength="8" lengthAdjust="spacingAndGlyphs" xml:space="preserve">·</text>
<text x="240" y="217" fill="#bc8cff" font-weight="bold" textLength="48" lengthAdjust="spacingAndGlyphs" xml:space="preserve">ctrl-e</text>
<text x="296" y="217" fill="#6e7681" textLength="48" lengthAdjust="spacingAndGlyphs" xml:space="preserve">editor</text>
<text x="352" y="217" fill="#6e7681" textLength="8" lengthAdjust="spacingAndGlyphs" xml:space="preserve">·</text>
<text x="368" y="217" fill="#bc8cff" font-weight="bold" textLength="24" lengthAdjust="spacingAndGlyphs" xml:space="preserve">esc</text>
<text x="400" y="217" fill="#6e7681" textLength="48" lengthAdjust="spacingAndGlyphs" xml:space="preserve">cancel</text>
<text x="72" y="234" fill="#3fb950" textLength="16" lengthAdjust="spacingAndGlyphs" xml:space="preserve">18</text>
<text x="96" y="234" fill="#3fb950" textLength="8" lengthAdjust="spacingAndGlyphs" xml:space="preserve">+</text>
<text x="32" y="251" fill="#6e7681" textLength="16" lengthAdjust="spacingAndGlyphs" xml:space="preserve">17</text>
<text x="72" y="251" fill="#6e7681" textLength="16" lengthAdjust="spacingAndGlyphs" xml:space="preserve">19</text>
<text x="168" y="251" fill="#b48ead" textLength="16" lengthAdjust="spacingAndGlyphs" xml:space="preserve">if</text>
<text x="192" y="251" fill="#bf616a" textLength="32" lengthAdjust="spacingAndGlyphs" xml:space="preserve">self</text>
<text x="224" y="251" fill="#c0c5ce" textLength="56" lengthAdjust="spacingAndGlyphs" xml:space="preserve">.tokens</text>
<text x="288" y="251" fill="#c0c5ce" textLength="16" lengthAdjust="spacingAndGlyphs" xml:space="preserve">==</text>
<text x="312" y="251" fill="#d08770" textLength="8" lengthAdjust="spacingAndGlyphs" xml:space="preserve">0</text>
<text x="328" y="251" fill="#c0c5ce" textLength="8" lengthAdjust="spacingAndGlyphs" xml:space="preserve">{</text>
<text x="32" y="268" fill="#6e7681" textLength="16" lengthAdjust="spacingAndGlyphs" xml:space="preserve">18</text>
<text x="72" y="268" fill="#6e7681" textLength="16" lengthAdjust="spacingAndGlyphs" xml:space="preserve">20</text>
<text x="200" y="268" fill="#b48ead" textLength="48" lengthAdjust="spacingAndGlyphs" xml:space="preserve">return</text>
<text x="256" y="268" fill="#d08770" textLength="40" lengthAdjust="spacingAndGlyphs" xml:space="preserve">false</text>
<text x="296" y="268" fill="#c0c5ce" textLength="8" lengthAdjust="spacingAndGlyphs" xml:space="preserve">;</text>
<text x="32" y="285" fill="#6e7681" textLength="16" lengthAdjust="spacingAndGlyphs" xml:space="preserve">19</text>
<text x="72" y="285" fill="#6e7681" textLength="16" lengthAdjust="spacingAndGlyphs" xml:space="preserve">21</text>
<text x="168" y="285" fill="#c0c5ce" textLength="8" lengthAdjust="spacingAndGlyphs" xml:space="preserve">}</text>
<text x="0" y="302" fill="#39c5cf" textLength="16" lengthAdjust="spacingAndGlyphs" xml:space="preserve">@@</text>
<text x="24" y="302" fill="#39c5cf" textLength="40" lengthAdjust="spacingAndGlyphs" xml:space="preserve">-21,4</text>
<text x="72" y="302" fill="#39c5cf" textLength="48" lengthAdjust="spacingAndGlyphs" xml:space="preserve">+23,11</text>
<text x="128" y="302" fill="#39c5cf" textLength="16" lengthAdjust="spacingAndGlyphs" xml:space="preserve">@@</text>
<text x="152" y="302" fill="#39c5cf" textLength="32" lengthAdjust="spacingAndGlyphs" xml:space="preserve">impl</text>
<text x="192" y="302" fill="#39c5cf" textLength="56" lengthAdjust="spacingAndGlyphs" xml:space="preserve">Limiter</text>
<text x="256" y="302" fill="#39c5cf" textLength="8" lengthAdjust="spacingAndGlyphs" xml:space="preserve">{</text>
<text x="280" y="302" fill="#39c5cf" textLength="16" lengthAdjust="spacingAndGlyphs" xml:space="preserve">(±</text>
<text x="304" y="302" fill="#39c5cf" textLength="64" lengthAdjust="spacingAndGlyphs" xml:space="preserve">context)</text>
<text x="32" y="319" fill="#6e7681" textLength="16" lengthAdjust="spacingAndGlyphs" xml:space="preserve">21</text>
<text x="72" y="319" fill="#6e7681" textLength="16" lengthAdjust="spacingAndGlyphs" xml:space="preserve">23</text>
<text x="168" y="319" fill="#bf616a" textLength="32" lengthAdjust="spacingAndGlyphs" xml:space="preserve">self</text>
<text x="200" y="319" fill="#c0c5ce" textLength="56" lengthAdjust="spacingAndGlyphs" xml:space="preserve">.tokens</text>
<text x="264" y="319" fill="#c0c5ce" textLength="16" lengthAdjust="spacingAndGlyphs" xml:space="preserve">-=</text>
<text x="288" y="319" fill="#d08770" textLength="8" lengthAdjust="spacingAndGlyphs" xml:space="preserve">1</text>
<text x="296" y="319" fill="#c0c5ce" textLength="8" lengthAdjust="spacingAndGlyphs" xml:space="preserve">;</text>
<text x="32" y="336" fill="#6e7681" textLength="16" lengthAdjust="spacingAndGlyphs" xml:space="preserve">22</text>
<text x="72" y="336" fill="#6e7681" textLength="16" lengthAdjust="spacingAndGlyphs" xml:space="preserve">24</text>
<text x="168" y="336" fill="#d08770" textLength="32" lengthAdjust="spacingAndGlyphs" xml:space="preserve">true</text>
<text x="32" y="353" fill="#6e7681" textLength="16" lengthAdjust="spacingAndGlyphs" xml:space="preserve">23</text>
<text x="72" y="353" fill="#6e7681" textLength="16" lengthAdjust="spacingAndGlyphs" xml:space="preserve">25</text>
<text x="136" y="353" fill="#c0c5ce" textLength="8" lengthAdjust="spacingAndGlyphs" xml:space="preserve">}</text>
<text x="72" y="370" fill="#3fb950" textLength="16" lengthAdjust="spacingAndGlyphs" xml:space="preserve">26</text>
<text x="96" y="370" fill="#3fb950" textLength="8" lengthAdjust="spacingAndGlyphs" xml:space="preserve">+</text>
<text x="72" y="387" fill="#3fb950" textLength="16" lengthAdjust="spacingAndGlyphs" xml:space="preserve">27</text>
<text x="96" y="387" fill="#3fb950" textLength="8" lengthAdjust="spacingAndGlyphs" xml:space="preserve">+</text>
<text x="136" y="387" fill="#65737e" textLength="24" lengthAdjust="spacingAndGlyphs" xml:space="preserve">///</text>
<text x="168" y="387" fill="#65737e" textLength="24" lengthAdjust="spacingAndGlyphs" xml:space="preserve">Add</text>
<text x="200" y="387" fill="#65737e" textLength="32" lengthAdjust="spacingAndGlyphs" xml:space="preserve">back</text>
<text x="240" y="387" fill="#65737e" textLength="24" lengthAdjust="spacingAndGlyphs" xml:space="preserve">the</text>
<text x="272" y="387" fill="#65737e" textLength="48" lengthAdjust="spacingAndGlyphs" xml:space="preserve">tokens</text>
<text x="328" y="387" fill="#65737e" textLength="56" lengthAdjust="spacingAndGlyphs" xml:space="preserve">accrued</text>
<text x="392" y="387" fill="#65737e" textLength="40" lengthAdjust="spacingAndGlyphs" xml:space="preserve">since</text>
<text x="440" y="387" fill="#65737e" textLength="24" lengthAdjust="spacingAndGlyphs" xml:space="preserve">the</text>
<text x="472" y="387" fill="#65737e" textLength="32" lengthAdjust="spacingAndGlyphs" xml:space="preserve">last</text>
<text x="512" y="387" fill="#65737e" textLength="40" lengthAdjust="spacingAndGlyphs" xml:space="preserve">call.</text>
<text x="72" y="404" fill="#3fb950" textLength="16" lengthAdjust="spacingAndGlyphs" xml:space="preserve">28</text>
<text x="96" y="404" fill="#3fb950" textLength="8" lengthAdjust="spacingAndGlyphs" xml:space="preserve">+</text>
<text x="136" y="404" fill="#b48ead" textLength="16" lengthAdjust="spacingAndGlyphs" xml:space="preserve">fn</text>
<text x="160" y="404" fill="#8fa1b3" textLength="48" lengthAdjust="spacingAndGlyphs" xml:space="preserve">refill</text>
<text x="208" y="404" fill="#c0c5ce" textLength="16" lengthAdjust="spacingAndGlyphs" xml:space="preserve">(&amp;</text>
<text x="224" y="404" fill="#b48ead" textLength="24" lengthAdjust="spacingAndGlyphs" xml:space="preserve">mut</text>
<text x="256" y="404" fill="#bf616a" textLength="32" lengthAdjust="spacingAndGlyphs" xml:space="preserve">self</text>
<text x="288" y="404" fill="#c0c5ce" textLength="8" lengthAdjust="spacingAndGlyphs" xml:space="preserve">)</text>
<text x="304" y="404" fill="#c0c5ce" textLength="8" lengthAdjust="spacingAndGlyphs" xml:space="preserve">{</text>
<text x="72" y="421" fill="#3fb950" textLength="16" lengthAdjust="spacingAndGlyphs" xml:space="preserve">29</text>
<text x="96" y="421" fill="#3fb950" textLength="8" lengthAdjust="spacingAndGlyphs" xml:space="preserve">+</text>
<text x="168" y="421" fill="#b48ead" textLength="24" lengthAdjust="spacingAndGlyphs" xml:space="preserve">let</text>
<text x="200" y="421" fill="#c0c5ce" textLength="56" lengthAdjust="spacingAndGlyphs" xml:space="preserve">elapsed</text>
<text x="264" y="421" fill="#c0c5ce" textLength="8" lengthAdjust="spacingAndGlyphs" xml:space="preserve">=</text>
<text x="280" y="421" fill="#bf616a" textLength="32" lengthAdjust="spacingAndGlyphs" xml:space="preserve">self</text>
<text x="312" y="421" fill="#c0c5ce" textLength="48" lengthAdjust="spacingAndGlyphs" xml:space="preserve">.last.</text>
<text x="360" y="421" fill="#96b5b4" textLength="56" lengthAdjust="spacingAndGlyphs" xml:space="preserve">elapsed</text>
<text x="416" y="421" fill="#c0c5ce" textLength="24" lengthAdjust="spacingAndGlyphs" xml:space="preserve">().</text>
<text x="440" y="421" fill="#96b5b4" textLength="56" lengthAdjust="spacingAndGlyphs" xml:space="preserve">as_secs</text>
<text x="496" y="421" fill="#c0c5ce" textLength="16" lengthAdjust="spacingAndGlyphs" xml:space="preserve">()</text>
<text x="520" y="421" fill="#c0c5ce" textLength="16" lengthAdjust="spacingAndGlyphs" xml:space="preserve">as</text>
<text x="544" y="421" fill="#b48ead" textLength="24" lengthAdjust="spacingAndGlyphs" xml:space="preserve">u32</text>
<text x="568" y="421" fill="#c0c5ce" textLength="8" lengthAdjust="spacingAndGlyphs" xml:space="preserve">;</text>
<text x="72" y="438" fill="#3fb950" textLength="16" lengthAdjust="spacingAndGlyphs" xml:space="preserve">30</text>
<text x="96" y="438" fill="#3fb950" textLength="8" lengthAdjust="spacingAndGlyphs" xml:space="preserve">+</text>
<text x="168" y="438" fill="#bf616a" textLength="32" lengthAdjust="spacingAndGlyphs" xml:space="preserve">self</text>
<text x="200" y="438" fill="#c0c5ce" textLength="56" lengthAdjust="spacingAndGlyphs" xml:space="preserve">.tokens</text>
<text x="264" y="438" fill="#c0c5ce" textLength="8" lengthAdjust="spacingAndGlyphs" xml:space="preserve">=</text>
<text x="280" y="438" fill="#c0c5ce" textLength="8" lengthAdjust="spacingAndGlyphs" xml:space="preserve">(</text>
<text x="288" y="438" fill="#bf616a" textLength="32" lengthAdjust="spacingAndGlyphs" xml:space="preserve">self</text>
<text x="320" y="438" fill="#c0c5ce" textLength="56" lengthAdjust="spacingAndGlyphs" xml:space="preserve">.tokens</text>
<text x="384" y="438" fill="#c0c5ce" textLength="8" lengthAdjust="spacingAndGlyphs" xml:space="preserve">+</text>
<text x="400" y="438" fill="#c0c5ce" textLength="72" lengthAdjust="spacingAndGlyphs" xml:space="preserve">elapsed).</text>
<text x="472" y="438" fill="#96b5b4" textLength="24" lengthAdjust="spacingAndGlyphs" xml:space="preserve">min</text>
<text x="496" y="438" fill="#c0c5ce" textLength="8" lengthAdjust="spacingAndGlyphs" xml:space="preserve">(</text>
<text x="504" y="438" fill="#bf616a" textLength="32" lengthAdjust="spacingAndGlyphs" xml:space="preserve">self</text>
<text x="536" y="438" fill="#c0c5ce" textLength="88" lengthAdjust="spacingAndGlyphs" xml:space="preserve">.capacity);</text>
<text x="72" y="455" fill="#3fb950" textLength="16" lengthAdjust="spacingAndGlyphs" xml:space="preserve">31</text>
<text x="96" y="455" fill="#3fb950" textLength="8" lengthAdjust="spacingAndGlyphs" xml:space="preserve">+</text>
<text x="168" y="455" fill="#bf616a" textLength="32" lengthAdjust="spacingAndGlyphs" xml:space="preserve">self</text>
<text x="200" y="455" fill="#c0c5ce" textLength="40" lengthAdjust="spacingAndGlyphs" xml:space="preserve">.last</text>
<text x="248" y="455" fill="#c0c5ce" textLength="8" lengthAdjust="spacingAndGlyphs" xml:space="preserve">=</text>
<text x="264" y="455" fill="#c0c5ce" textLength="120" lengthAdjust="spacingAndGlyphs" xml:space="preserve">Instant::now();</text>
<text x="16" y="472" fill="#6e7681" textLength="64" lengthAdjust="spacingAndGlyphs" xml:space="preserve">question</text>
<text x="104" y="472" fill="#c9d1d9" textLength="96" lengthAdjust="spacingAndGlyphs" xml:space="preserve">Whole-second</text>
<text x="208" y="472" fill="#c9d1d9" textLength="80" lengthAdjust="spacingAndGlyphs" xml:space="preserve">truncation</text>
<text x="296" y="472" fill="#c9d1d9" textLength="40" lengthAdjust="spacingAndGlyphs" xml:space="preserve">drops</text>
<text x="344" y="472" fill="#c9d1d9" textLength="80" lengthAdjust="spacingAndGlyphs" xml:space="preserve">sub-second</text>
<text x="432" y="472" fill="#c9d1d9" textLength="56" lengthAdjust="spacingAndGlyphs" xml:space="preserve">refills</text>
<text x="72" y="489" fill="#3fb950" textLength="16" lengthAdjust="spacingAndGlyphs" xml:space="preserve">32</text>
<text x="96" y="489" fill="#3fb950" textLength="8" lengthAdjust="spacingAndGlyphs" xml:space="preserve">+</text>
<text x="136" y="489" fill="#c0c5ce" textLength="8" lengthAdjust="spacingAndGlyphs" xml:space="preserve">}</text>
<text x="32" y="506" fill="#6e7681" textLength="16" lengthAdjust="spacingAndGlyphs" xml:space="preserve">24</text>
<text x="72" y="506" fill="#6e7681" textLength="16" lengthAdjust="spacingAndGlyphs" xml:space="preserve">33</text>
<text x="104" y="506" fill="#c0c5ce" textLength="8" lengthAdjust="spacingAndGlyphs" xml:space="preserve">}</text>
<text x="8" y="523" fill="#bc8cff" font-weight="bold" textLength="32" lengthAdjust="spacingAndGlyphs" xml:space="preserve">type</text>
<text x="48" y="523" fill="#6e7681" textLength="32" lengthAdjust="spacingAndGlyphs" xml:space="preserve">body</text>
<text x="88" y="523" fill="#6e7681" textLength="8" lengthAdjust="spacingAndGlyphs" xml:space="preserve">·</text>
<text x="104" y="523" fill="#bc8cff" font-weight="bold" textLength="48" lengthAdjust="spacingAndGlyphs" xml:space="preserve">ctrl-t</text>
<text x="160" y="523" fill="#6e7681" textLength="32" lengthAdjust="spacingAndGlyphs" xml:space="preserve">type</text>
<text x="200" y="523" fill="#6e7681" textLength="8" lengthAdjust="spacingAndGlyphs" xml:space="preserve">·</text>
<text x="216" y="523" fill="#bc8cff" font-weight="bold" textLength="48" lengthAdjust="spacingAndGlyphs" xml:space="preserve">ctrl-s</text>
<text x="272" y="523" fill="#6e7681" textLength="32" lengthAdjust="spacingAndGlyphs" xml:space="preserve">save</text>
<text x="312" y="523" fill="#6e7681" textLength="8" lengthAdjust="spacingAndGlyphs" xml:space="preserve">·</text>
<text x="328" y="523" fill="#bc8cff" font-weight="bold" textLength="24" lengthAdjust="spacingAndGlyphs" xml:space="preserve">esc</text>
<text x="360" y="523" fill="#6e7681" textLength="48" lengthAdjust="spacingAndGlyphs" xml:space="preserve">cancel</text>
</svg>
